<svg xmlns="http://www.w3.org/2000/svg" width="25" height="25" id="notification"><path d="M12.5 0C5.602 0 0 5.602 0 12.5S5.602 25 12.5 25 25 19.398 25 12.5 19.398 0 12.5 0zm0 .938c6.378 0 11.531 5.184 11.531 11.562A11.519 11.519 0 0 1 12.5 24.031 11.519 11.519 0 0 1 .969 12.5C.969 6.122 6.122.937 12.5.937zM12.5 6c-.823 0-1.5.678-1.5 1.5 0 .277.085.526.219.75A3.509 3.509 0 0 0 9.03 11.5S9 12.967 9 14.063c0-.056.01.034-.063.156a3.605 3.605 0 0 1-.312.406c-.233.275-.469.5-.469.5A.5.5 0 0 0 8.5 16h2.031c.002.607.25 1.209.75 1.594.69.53 1.661.56 2.375.062.544-.38.842-1.016.844-1.656h2a.5.5 0 0 0 .344-.844s-.21-.224-.438-.5a3.922 3.922 0 0 1-.312-.437c-.072-.122-.094-.21-.094-.156 0-.92.031-2.563.031-2.563a3.476 3.476 0 0 0-2.218-3.25c.13-.222.187-.476.187-.75 0-.822-.677-1.5-1.5-1.5zm0 1c.282 0 .5.218.5.5 0 .282-.218.5-.5.5a.493.493 0 0 1-.5-.5c0-.282.218-.5.5-.5zm.031 2a2.481 2.481 0 0 1 2.5 2.5S15 13.136 15 14.063c0 .292.136.494.25.687.056.094.124.162.188.25H9.593c.064-.086.131-.157.187-.25.117-.194.219-.391.219-.688 0-1.088.031-2.562.031-2.562a2.486 2.486 0 0 1 2.5-2.5zM11.5 16h2c0 .32-.132.621-.406.813-.36.25-.84.235-1.188-.032A.992.992 0 0 1 11.5 16z" color="#000" font-family="Sans" font-weight="400" overflow="visible" style="text-indent:0;text-align:start;line-height:normal;text-transform:none;block-progression:tb;marker:none;-inkscape-font-specification:Sans"></path></svg>